IKResults
version=1
nRows=5
nColumns=40
inDegrees=yes

Units are S.I. units (second, meters, Newtons, ...)
Angles are in degrees.

endheader
time	pelvis_tilt	pelvis_list	pelvis_rotation	pelvis_tx	pelvis_ty	pelvis_tz	hip_flexion_r	hip_adduction_r	hip_rotation_r	knee_angle_r	knee_angle_r_beta	ankle_angle_r	subtalar_angle_r	mtp_angle_r	hip_flexion_l	hip_adduction_l	hip_rotation_l	knee_angle_l	knee_angle_l_beta	ankle_angle_l	subtalar_angle_l	mtp_angle_l	lumbar_extension	lumbar_bending	lumbar_rotation	arm_flex_r	arm_add_r	arm_rot_r	elbow_flex_r	pro_sup_r	wrist_flex_r	wrist_dev_r	arm_flex_l	arm_add_l	arm_rot_l	elbow_flex_l	pro_sup_l	wrist_flex_l	wrist_dev_l
      1.18000000	     14.77909479	      3.57975112	     -3.78265030	     -0.63955952	      0.93354636	      1.43334868	    -28.37969290	     -4.21388928	     -7.56725915	    -16.57574814	     -0.28930138	     13.90595067	     -1.15285580	     -5.38951173	      1.81909640	     -1.55503392	     23.97045120	    -14.08506665	     -0.24583079	     -4.42151663	     -7.82796041	     -9.31670599	    -22.26403168	     -5.85372605	      3.65105408	      0.28797886	    -11.45227051	      4.73897590	     28.52325465	     89.95437384	      0.00000000	      0.00000000	     -3.07118168	      8.24642892	     12.44975139	     19.18501293	     89.95437384	      0.00000000	      0.00000000
      1.19000000	     14.79046877	      3.87613565	     -3.82858294	     -0.63306612	      0.93426835	      1.43201399	    -28.54925229	     -4.66504308	     -7.26190264	    -16.99747068	     -0.29666183	     13.26997293	     -1.30735305	     -5.24735082	      1.48379637	     -1.99828987	     24.08119731	    -14.24843846	     -0.24868216	     -3.87922389	     -7.98298470	     -9.38564103	    -22.15902734	     -6.23733419	      3.39730408	      0.36328749	    -11.23166112	      4.69779215	     27.85595820	     89.95437384	      0.00000000	      0.00000000	     -2.92888897	      8.31280206	     12.24088151	     18.60515140	     89.95437384	      0.00000000	      0.00000000
      1.20000000	     14.63998214	      4.03456096	     -3.67369110	     -0.62657360	      0.93494589	      1.43047149	    -28.51103026	     -4.86508862	     -6.89817150	    -17.53932442	     -0.30611896	     12.71313191	     -1.37985472	     -5.11667946	      1.34242597	     -2.29115574	     23.79218469	    -14.47724109	     -0.25267552	     -3.55524558	     -8.02733602	     -9.32921297	    -21.95617202	     -6.40372296	      3.08888205	      0.16801557	    -11.09764358	      4.64307725	     27.65374411	     89.95437384	      0.00000000	      0.00000000	     -2.94184507	      8.36530784	     12.12514236	     18.46684596	     89.95437384	      0.00000000	      0.00000000
      1.21000000	     14.53606477	      4.19925564	     -3.59149341	     -0.62010891	      0.93591555	      1.42904927	    -28.46543094	     -5.09920174	     -6.54482482	    -18.12627051	     -0.31636310	     11.98500270	     -1.58044053	     -4.94792859	      1.05836072	     -2.60890160	     23.44024395	    -14.59082671	     -0.25465797	     -3.10394212	     -8.17575421	     -9.29099074	    -21.79259839	     -6.62578610	      2.87568578	      0.03661943	    -10.95308872	      4.56832178	     27.28332151	     89.95437384	      0.00000000	      0.00000000	     -2.90111613	      8.42411428	     11.95984734	     18.30036488	     89.95437384	      0.00000000	      0.00000000
      1.22000000	     14.48738817	      4.39985723	     -3.65482707	     -0.61349969	      0.93721826	      1.42782610	    -28.51761797	     -5.32101149	     -5.67233206	    -18.55383501	     -0.32382551	     10.76344431	     -3.21780191	     -4.36577669	      0.39296388	     -3.10060461	     23.00538128	    -13.97803979	     -0.24396282	     -3.09099090	     -8.00645049	     -9.27238784	    -21.67761489	     -6.93217318	      2.92974238	     -0.22867260	    -10.76167637	      4.11425374	     27.04091666	     89.95437384	      0.00000000	      0.00000000	     -2.80022649	      8.50394260	     11.60008856	     18.18530272	     89.95437384	      0.00000000	      0.00000000
